<svg width="24" height="24" viewBox="0 0 24 24" fill="none" xmlns="http://www.w3.org/2000/svg">
<path d="M4.90219 7.06518C4.9297 6.51498 5.38382 6.08301 5.9347 6.08301H18.0651C18.616 6.08301 19.0701 6.51498 19.0977 7.06518L19.7587 20.2861C19.8325 21.7624 18.6555 22.9997 17.1774 22.9997H6.82242C5.34435 22.9997 4.16734 21.7624 4.24115 20.2861L4.90219 7.06518Z" stroke="#717171" stroke-width="1.5"/>
<path d="M8.33496 8.90186C8.33496 7.49213 8.33496 7.21019 8.33496 5.23657C8.33496 3.26296 9.74469 1.57129 12.0002 1.57129C14.8197 1.57129 15.6655 3.26296 15.6655 5.23657C15.6655 6.81546 15.6655 8.33797 15.6655 8.90186" stroke="#717171" stroke-width="1.5" stroke-linecap="round"/>
<path d="M9 14L11 16L15 12" stroke="#717171" stroke-width="1.5" stroke-linecap="round" stroke-linejoin="round"/>
</svg>
