<svg width="24" height="24" viewBox="0 0 24 24" fill="none" xmlns="http://www.w3.org/2000/svg">
<circle cx="3.40426" cy="3.40426" r="3.40426" transform="matrix(-1 0 0 1 15.6162 5)" stroke="#717171" stroke-width="1.5"/>
<path d="M6.25488 16.8594C6.25488 16.1272 6.71518 15.474 7.40475 15.2277V15.2277C10.5136 14.1174 13.911 14.1174 17.0199 15.2277V15.2277C17.7095 15.474 18.1698 16.1272 18.1698 16.8594V17.979C18.1698 18.9896 17.2747 19.7659 16.2743 19.6229L15.9407 19.5753C13.4677 19.222 10.957 19.222 8.48393 19.5753L8.15038 19.6229C7.14995 19.7659 6.25488 18.9896 6.25488 17.979V16.8594Z" stroke="#717171" stroke-width="1.5"/>
<path d="M17.3194 11.9023C18.7966 11.9023 19.9941 10.7047 19.9941 9.22751C19.9941 7.75027 18.7966 6.55273 17.3194 6.55273" stroke="#717171" stroke-width="1.5" stroke-linecap="round"/>
<path d="M20.2491 18.0046L20.5111 18.042C21.2972 18.1543 22.0005 17.5444 22.0005 16.7503V15.8707C22.0005 15.2953 21.6388 14.7821 21.097 14.5886C20.5565 14.3956 20.005 14.2453 19.4473 14.1377" stroke="#717171" stroke-width="1.5" stroke-linecap="round"/>
<path d="M6.68063 11.9023C5.2034 11.9023 4.00586 10.7047 4.00586 9.22751C4.00586 7.75027 5.2034 6.55273 6.68063 6.55273" stroke="#717171" stroke-width="1.5" stroke-linecap="round"/>
<path d="M3.75094 18.0046L3.48886 18.042C2.70281 18.1543 1.99954 17.5444 1.99954 16.7503V15.8707C1.99954 15.2953 2.36121 14.7821 2.90301 14.5886C3.44346 14.3956 3.995 14.2453 4.55273 14.1377" stroke="#717171" stroke-width="1.5" stroke-linecap="round"/>
</svg>
